<svg width="158" height="169" viewBox="0 0 158 169" fill="none" xmlns="http://www.w3.org/2000/svg">
<path d="M105.843 80.2253C97.8341 86.1282 45.3875 124.798 33.2449 133.758L12.7123 114.85L71.0893 48.2221L105.843 80.2253ZM146.261 11.0523C130.616 -3.35435 105.241 -3.35435 89.5968 11.0523C79.2809 20.5586 78.4056 30.9762 77.9031 34.6709L120.612 73.9999C124.297 73.6214 135.854 72.815 146.261 63.2318C161.913 48.825 161.913 25.4589 146.261 11.0523ZM71.3938 136.821C53.9446 136.821 45.9739 146.825 34.7292 153.331C26.766 157.93 19.2291 155.595 15.6053 151.466C14.2882 149.987 10.5274 144.659 16.93 138.553L15.9783 137.676L7.40603 130.028C-3.0391 139.955 -1.18912 151.817 5.28198 159.171C12.7047 167.611 27.6339 171.874 41.7867 163.693C53.8533 156.717 59.1976 149.055 71.3938 149.055C79.2809 149.055 86.4676 152.308 97.9255 168.495L109.048 161.821C98.4432 146.818 87.975 136.821 71.3938 136.821Z" fill="#EAEAEA"/>
</svg>
